<svg xmlns="http://www.w3.org/2000/svg" viewBox="0 0 24 24" id="Business-Products-Bag--Streamline-Pixel" height="24" width="24">
  <desc>
    Business Products Bag Streamline Icon: https://streamlinehq.com
  </desc>
  <title>business-products-bag</title>
  <g>
    <path d="M22.28625 6.285h1.1400000000000001v4.574999999999999h-1.1400000000000001Z" fill="#000000" stroke-width="0.75"></path>
    <path d="M21.138749999999998 5.1450000000000005h1.1475v1.1400000000000001h-1.1475Z" fill="#000000" stroke-width="0.75"></path>
    <path d="M19.99875 21.142500000000002h1.1400000000000001v1.1475h-1.1400000000000001Z" fill="#000000" stroke-width="0.75"></path>
    <path d="m19.99875 12 1.1400000000000001 0 0 9.1425 1.1475 0 0 -10.2825 -2.2874999999999996 0 0 1.1400000000000001z" fill="#000000" stroke-width="0.75"></path>
    <path d="M17.71125 12h2.2874999999999996v1.1475h-2.2874999999999996Z" fill="#000000" stroke-width="0.75"></path>
    <path d="M4.00125 22.29h15.997499999999999v1.1400000000000001H4.00125Z" fill="#000000" stroke-width="0.75"></path>
    <path d="M15.431249999999999 13.1475h2.2800000000000002v1.1400000000000001h-2.2800000000000002Z" fill="#000000" stroke-width="0.75"></path>
    <path d="m10.85625 15.4275 0 2.2874999999999996 2.2874999999999996 0 0 -2.2874999999999996 2.2874999999999996 0 0 -1.1400000000000001 -2.2874999999999996 0 0 -1.1400000000000001 -2.2874999999999996 0 0 1.1400000000000001 -2.2874999999999996 0 0 1.1400000000000001 2.2874999999999996 0z" fill="#000000" stroke-width="0.75"></path>
    <path d="M6.28125 0.5700000000000001h11.43v1.1475H6.28125Z" fill="#000000" stroke-width="0.75"></path>
    <path d="M6.28125 13.1475h2.2874999999999996v1.1400000000000001h-2.2874999999999996Z" fill="#000000" stroke-width="0.75"></path>
    <path d="M4.00125 12h2.2800000000000002v1.1475h-2.2800000000000002Z" fill="#000000" stroke-width="0.75"></path>
    <path d="m21.138749999999998 5.1450000000000005 0 -1.1400000000000001 -2.2800000000000002 0 0 -2.2874999999999996 -1.1475 0 0 2.2874999999999996 -11.43 0 0 -2.2874999999999996 -1.1400000000000001 0 0 2.2874999999999996 -2.2874999999999996 0 0 1.1400000000000001 18.285 0z" fill="#000000" stroke-width="0.75"></path>
    <path d="M2.8537500000000002 21.142500000000002h1.1475v1.1475h-1.1475Z" fill="#000000" stroke-width="0.75"></path>
    <path d="m2.8537500000000002 12 1.1475 0 0 -1.1400000000000001 -2.2874999999999996 0 0 10.2825 1.1400000000000001 0 0 -9.1425z" fill="#000000" stroke-width="0.75"></path>
    <path d="M1.71375 5.1450000000000005h1.1400000000000001v1.1400000000000001h-1.1400000000000001Z" fill="#000000" stroke-width="0.75"></path>
    <path d="M0.57375 6.285h1.1400000000000001v4.574999999999999H0.57375Z" fill="#000000" stroke-width="0.75"></path>
  </g>
</svg>